<!-- <svg xmlns="http://www.w3.org/2000/svg" fill="none" viewBox="0 0 128 128">
    <path d="M50.4 78.5a75.1 75.1 0 0 0-28.5 6.9l24.2-65.7c.7-2 1.9-3.2 3.4-3.2h29c1.5 0 2.7 1.2 3.4 3.2l24.2 65.7s-11.6-7-28.5-7L67 45.5c-.4-1.7-1.6-2.8-2.9-2.8-1.3 0-2.5 1.1-2.9 2.7L50.4 78.5Zm-1.1 28.2Zm-4.2-20.2c-2 6.6-.6 15.8 4.2 20.2a17.5 17.5 0 0 1 .2-.7 5.5 5.5 0 0 1 5.7-4.5c2.8.1 4.3 1.5 4.7 4.7.2 1.1.2 2.3.2 3.5v.4c0 2.7.7 5.2 2.2 7.4a13 13 0 0 0 5.7 4.9v-.3l-.2-.3c-1.8-5.6-.5-9.5 4.4-12.8l1.5-1a73 73 0 0 0 3.2-2.2 16 16 0 0 0 6.8-11.4c.3-2 .1-4-.6-6l-.8.6-1.6 1a37 37 0 0 1-22.4 2.7c-5-.7-9.7-2-13.2-6.2Z" />
    <style>
        path { fill: #000; }
        @media (prefers-color-scheme: dark) {
            path { fill: #FFF; }
        }
    </style>
</svg> -->

<svg xmlns="http://www.w3.org/2000/svg" version="1.1" xmlns:xlink="http://www.w3.org/1999/xlink" width="500" height="500" viewBox="0 0 2000 1871"><svg xml:space="preserve" width="2000" height="1900" data-version="2" data-id="lg_tLWNNjhY4shaF4ODsp" viewBox="0 0 772 771" x="0" y="0"><rect width="100%" height="100%" fill="transparent"></rect><path fill="#fff" d="M333.268 7.425C159.002 19.747 19.782 158.967 7.46 333.233c-.963 13.6 9.773 25.176 23.404 25.176H334.99c12.957 0 23.462-10.504 23.462-23.462V30.83c0-13.631-11.577-24.36-25.177-23.404ZM764.54 335.288C752.218 161.022 612.998 21.802 438.732 9.48c-13.6-.963-25.176 9.773-25.176 23.404V337.01c0 12.957 10.504 23.462 23.462 23.462h304.118c13.631 0 24.36-11.577 23.404-25.177Zm-33.2 71.365C557.076 418.975 417.856 558.195 405.534 732.46c-.963 13.6 9.773 25.176 23.404 25.176h304.125c12.957 0 23.462-10.504 23.462-23.462V430.057c0-13.631-11.577-24.36-25.177-23.404ZM7.46 437.766c12.322 174.266 151.542 313.486 325.808 325.808 13.6.963 25.176-9.773 25.176-23.404V436.045c0-12.957-10.504-23.462-23.462-23.462H30.864c-13.631 0-24.36 11.577-23.404 25.177Z"></path></svg>    <style>
        path { fill: #000; }
        @media (prefers-color-scheme: dark) {
            path { fill: #FFF; }
        }
    </style></svg>