<svg xmlns="http://www.w3.org/2000/svg">
  <defs>
    <!-- entraID -->
    <symbol id="entraID" viewBox="0 0 85 107">
    <svg viewBox="0 0 128 128" xmlns="http://www.w3.org/2000/svg"><defs><linearGradient id="azure-original-a" x1="60.919" y1="9.602" x2="18.667" y2="134.423" gradientUnits="userSpaceOnUse"><stop stop-color="#114A8B"/><stop offset="1" stop-color="#0669BC"/></linearGradient><linearGradient id="azure-original-b" x1="74.117" y1="67.772" x2="64.344" y2="71.076" gradientUnits="userSpaceOnUse"><stop stop-opacity=".3"/><stop offset=".071" stop-opacity=".2"/><stop offset=".321" stop-opacity=".1"/><stop offset=".623" stop-opacity=".05"/><stop offset="1" stop-opacity="0"/></linearGradient><linearGradient id="azure-original-c" x1="68.742" y1="5.961" x2="115.122" y2="129.525" gradientUnits="userSpaceOnUse"><stop stop-color="#3CCBF4"/><stop offset="1" stop-color="#2892DF"/></linearGradient></defs><path d="M46.09.002h40.685L44.541 125.137a6.485 6.485 0 01-6.146 4.413H6.733a6.482 6.482 0 01-5.262-2.699 6.474 6.474 0 01-.876-5.848L39.944 4.414A6.488 6.488 0 0146.09 0z" fill="url(#azure-original-a)" transform="translate(.587 4.468) scale(.91904)"/><path d="M97.28 81.607H37.987a2.743 2.743 0 00-1.874 4.751l38.1 35.562a5.991 5.991 0 004.087 1.61h33.574z" fill="#0078d4"/><path d="M46.09.002A6.434 6.434 0 0039.93 4.5L.644 120.897a6.469 6.469 0 006.106 8.653h32.48a6.942 6.942 0 005.328-4.531l7.834-23.089 27.985 26.101a6.618 6.618 0 004.165 1.519h36.396l-15.963-45.616-46.533.011L86.922.002z" fill="url(#azure-original-b)" transform="translate(.587 4.468) scale(.91904)"/><path d="M98.055 4.408A6.476 6.476 0 0091.917.002H46.575a6.478 6.478 0 016.137 4.406l39.35 116.594a6.476 6.476 0 01-6.137 8.55h45.344a6.48 6.48 0 006.136-8.55z" fill="url(#azure-original-c)" transform="translate(.587 4.468) scale(.91904)"/></svg>
    </symbol>

    <!-- M365 icon -->
    <symbol id="M365" viewBox="0 0 630 630">
    <svg xmlns="http://www.w3.org/2000/svg" id="image-2" fill="none" viewBox="4 2 40 44">
                                    <path d="M20.0842 3.02588L19.8595 3.16179C19.5021 3.37799 19.1654 3.61972 18.8512 3.88385L19.4993 3.42798H25L26 11L21 16L16 19.4754V23.4829C16 26.2819 17.4629 28.8774 19.8574 30.3268L25.1211 33.5129L14 40.0002H11.8551L7.85737 37.5804C5.46286 36.131 4 33.5355 4 30.7365V17.2606C4 14.4607 5.46379 11.8645 7.85952 10.4154L19.8595 3.15687C19.9339 3.11189 20.0088 3.06823 20.0842 3.02588Z" fill="url(#paint0_radial_2994_8373)"/>
                                    <path d="M20.0842 3.02588L19.8595 3.16179C19.5021 3.37799 19.1654 3.61972 18.8512 3.88385L19.4993 3.42798H25L26 11L21 16L16 19.4754V23.4829C16 26.2819 17.4629 28.8774 19.8574 30.3268L25.1211 33.5129L14 40.0002H11.8551L7.85737 37.5804C5.46286 36.131 4 33.5355 4 30.7365V17.2606C4 14.4607 5.46379 11.8645 7.85952 10.4154L19.8595 3.15687C19.9339 3.11189 20.0088 3.06823 20.0842 3.02588Z" fill="url(#paint1_linear_2994_8373)"/>
                                    <path d="M32 19V23.4803C32 26.2793 30.5371 28.8748 28.1426 30.3242L16.1426 37.5878C13.6878 39.0737 10.6335 39.1273 8.1355 37.7487L19.8573 44.844C22.4039 46.3855 25.5959 46.3855 28.1426 44.844L40.1426 37.5803C42.5371 36.1309 43.9999 33.5354 43.9999 30.7364V27.5L42.9999 26L32 19Z" fill="url(#paint2_radial_2994_8373)"/>
                                    <path d="M32 19V23.4803C32 26.2793 30.5371 28.8748 28.1426 30.3242L16.1426 37.5878C13.6878 39.0737 10.6335 39.1273 8.1355 37.7487L19.8573 44.844C22.4039 46.3855 25.5959 46.3855 28.1426 44.844L40.1426 37.5803C42.5371 36.1309 43.9999 33.5354 43.9999 30.7364V27.5L42.9999 26L32 19Z" fill="url(#paint3_linear_2994_8373)"/>
                                    <path d="M40.1405 10.4153L28.1405 3.15678C25.6738 1.66471 22.6021 1.61849 20.0979 3.01811L19.8595 3.16231C17.4638 4.61143 16 7.20757 16 10.0075V19.4914L19.8595 17.1568C22.4051 15.6171 25.5949 15.6171 28.1405 17.1568L40.1405 24.4153C42.4613 25.8192 43.9076 28.2994 43.9957 30.9985C43.9986 30.9113 44 30.824 44 30.7364V17.2605C44 14.4606 42.5362 11.8644 40.1405 10.4153Z" fill="url(#paint4_radial_2994_8373)"/>
                                    <path d="M40.1405 10.4153L28.1405 3.15678C25.6738 1.66471 22.6021 1.61849 20.0979 3.01811L19.8595 3.16231C17.4638 4.61143 16 7.20757 16 10.0075V19.4914L19.8595 17.1568C22.4051 15.6171 25.5949 15.6171 28.1405 17.1568L40.1405 24.4153C42.4613 25.8192 43.9076 28.2994 43.9957 30.9985C43.9986 30.9113 44 30.824 44 30.7364V17.2605C44 14.4606 42.5362 11.8644 40.1405 10.4153Z" fill="url(#paint5_linear_2994_8373)"/>
                                    <path d="M4.00428 30.9984C4.00428 30.9984 4.00428 30.9984 4.00428 30.9984Z" fill="url(#paint6_radial_2994_8373)"/>
                                    <path d="M4.00428 30.9984C4.00428 30.9984 4.00428 30.9984 4.00428 30.9984Z" fill="url(#paint7_linear_2994_8373)"/>
                                    <defs>
                                        <radialGradient id="paint0_radial_2994_8373" cx="0" cy="0" r="1" gradientUnits="userSpaceOnUse" gradientTransform="translate(17.4186 10.6383) rotate(110.528) scale(33.3657 58.1966)">
                                            <stop offset="0.06441" stop-color="#AE7FE2"/>
                                            <stop offset="1" stop-color="#0078D4"/>
                                        </radialGradient>
                                        <linearGradient id="paint1_linear_2994_8373" x1="17.5119" y1="37.8685" x2="12.7513" y2="29.6347" gradientUnits="userSpaceOnUse">
                                            <stop offset="0" stop-color="#114A8B"/>
                                            <stop offset="1" stop-color="#0078D4" stop-opacity="0"/>
                                        </linearGradient>
                                        <radialGradient id="paint2_radial_2994_8373" cx="0" cy="0" r="1" gradientUnits="userSpaceOnUse" gradientTransform="translate(10.4299 36.3511) rotate(-8.36717) scale(31.0503 20.5108)">
                                            <stop offset="0.133928" stop-color="#D59DFF"/>
                                            <stop offset="1" stop-color="#5E438F"/>
                                        </radialGradient>
                                        <linearGradient id="paint3_linear_2994_8373" x1="40.3566" y1="25.3768" x2="35.2552" y2="32.6916" gradientUnits="userSpaceOnUse">
                                            <stop offset="0" stop-color="#493474"/>
                                            <stop offset="1" stop-color="#8C66BA" stop-opacity="0"/>
                                        </linearGradient>
                                        <radialGradient id="paint4_radial_2994_8373" cx="0" cy="0" r="1" gradientUnits="userSpaceOnUse" gradientTransform="translate(41.0552 26.504) rotate(-165.772) scale(24.9228 41.9552)">
                                            <stop offset="0.0584996" stop-color="#50E6FF"/>
                                            <stop offset="1" stop-color="#436DCD"/>
                                        </radialGradient>
                                        <linearGradient id="paint5_linear_2994_8373" x1="16.9758" y1="3.05655" x2="24.4868" y2="3.05655" gradientUnits="userSpaceOnUse">
                                            <stop offset="0" stop-color="#2D3F80"/>
                                            <stop offset="1" stop-color="#436DCD" stop-opacity="0"/>
                                        </linearGradient>
                                        <radialGradient id="paint6_radial_2994_8373" cx="0" cy="0" r="1" gradientUnits="userSpaceOnUse" gradientTransform="translate(41.0552 26.504) rotate(-165.772) scale(24.9228 41.9552)">
                                            <stop offset="0.0584996" stop-color="#50E6FF"/>
                                            <stop offset="1" stop-color="#436DCD"/>
                                        </radialGradient>
                                        <linearGradient id="paint7_linear_2994_8373" x1="16.9758" y1="3.05655" x2="24.4868" y2="3.05655" gradientUnits="userSpaceOnUse">
                                            <stop offset="0" stop-color="#2D3F80"/>
                                            <stop offset="1" stop-color="#436DCD" stop-opacity="0"/>
                                        </linearGradient>
                                    </defs>
                            </svg>
    </symbol>
    <!-- linux icon-->
    <symbol id="linux" viewBox="0 0 128 128">
    <svg version="1.1"  xmlns="http://www.w3.org/2000/svg" xmlns:xlink="http://www.w3.org/1999/xlink" x="0px" y="0px"
	 viewBox="0 2 48 48" enable-background="new 0 2 48 48" xml:space="preserve">
<polygon fill="#ECEFF1" points="20.1,18.2 20.2,20.5 18.6,23.5 16.1,28.4 15.6,32.5 17.4,38.3 21.5,40.6 27.7,40.6 33.5,36.2 
	36.1,29.3 30.1,22 28.4,17.9 "/>
<path fill="#263238" d="M34.3,23.9c-1.6-2.3-2.9-3.7-3.6-6.6c-0.7-2.9,0.2-2.1-0.4-4.6c-0.3-1.3-0.8-2.2-1.3-2.9
	c-0.6-0.7-1.3-1.1-1.7-1.2c-0.9-0.5-3-1.3-5.6,0.1c-2.7,1.4-2.4,4.4-1.9,10.5c0,0.4-0.1,0.9-0.3,1.3c-0.4,0.9-1.1,1.7-1.7,2.4
	c-0.7,1-1.4,2-1.9,3.1c-1.2,2.3-2.3,5.2-2,6.3c0.5-0.1,6.8,9.5,6.8,9.7c0.4-0.1,2.1-0.1,3.6-0.1c2.1-0.1,3.3-0.2,5,0.2
	c0-0.3-0.1-0.6-0.1-0.9c0-0.6,0.1-1.1,0.2-1.8c0.1-0.5,0.2-1,0.3-1.6c-1,0.9-2.8,1.9-4.5,2.2c-1.5,0.3-4-0.2-5.2-1.7
	c0.1,0,0.3,0,0.4-0.1c0.3-0.1,0.6-0.2,0.7-0.4c0.3-0.5,0.1-1-0.1-1.3c-0.2-0.3-1.7-1.4-2.4-2c-0.7-0.6-1.1-0.9-1.5-1.3
	c0,0-0.6-0.6-0.8-0.8c-0.2-0.2-0.3-0.4-0.4-0.5c-0.2-0.5-0.3-1.1-0.2-1.9c0.1-1.1,0.5-2,1-3c0.2-0.4,0.7-1.2,0.7-1.2
	s-1.7,4.2-0.8,5.5c0,0,0.1-1.3,0.5-2.6c0.3-0.9,0.8-2.2,1.4-2.9s2.1-3.3,2.2-4.9c0-0.7,0.1-1.4,0.1-1.9c-0.4-0.4,6.6-1.4,7-0.3
	c0.1,0.4,1.5,4,2.3,5.9c0.4,0.9,0.9,1.7,1.2,2.7c0.3,1.1,0.5,2.6,0.5,4.1c0,0.3,0,0.8-0.1,1.3c0.2,0,4.1-4.2-0.5-7.7
	c0,0,2.8,1.3,2.9,3.9c0.1,2.1-0.8,3.8-1,4.1c0.1,0,2.1,0.9,2.2,0.9c0.4,0,1.2-0.3,1.2-0.3c0.1-0.3,0.4-1.1,0.4-1.4
	C37.6,29.9,35.9,26.2,34.3,23.9z"/>
<g>
	<ellipse fill="#ECEFF1" cx="21.6" cy="15.3" rx="1.3" ry="2"/>
	<ellipse fill="#ECEFF1" cx="26.1" cy="15.2" rx="1.7" ry="2.3"/>
</g>
<g>
	
		<ellipse transform="matrix(-0.1254 -0.9921 0.9921 -0.1254 8.9754 38.9969)" fill="#212121" cx="21.7" cy="15.5" rx="1.2" ry="0.7"/>
	<ellipse fill="#212121" cx="26" cy="15.6" rx="1" ry="1.3"/>
</g>
<g>
	<path fill="#FFC107" d="M39.3,37.6c-0.4-0.2-1.1-0.5-1.7-1.4c-0.3-0.5-0.2-1.9-0.7-2.5c-0.3-0.4-0.7-0.2-0.8-0.2
		c-0.9,0.2-3,1.6-4.4,0c-0.2-0.2-0.5-0.5-1-0.5c-0.5,0-0.7,0.2-0.9,0.6s-0.2,0.7-0.2,1.7c0,0.8,0,1.7-0.1,2.4
		c-0.2,1.7-0.5,2.7-0.5,3.7c0,1.1,0.3,1.8,0.7,2.1c0.3,0.3,0.8,0.5,1.9,0.5c1.1,0,1.8-0.4,2.5-1.1c0.5-0.5,0.9-0.7,2.3-1.7
		c1.1-0.7,2.8-1.6,3.1-1.9c0.2-0.2,0.5-0.3,0.5-0.9C40,37.9,39.6,37.7,39.3,37.6z"/>
	<path fill="#FFC107" d="M19.2,37.9c-1-1.6-1.1-1.9-1.8-2.9c-0.6-1-1.9-2.9-2.7-2.9c-0.6,0-0.9,0.3-1.3,0.7
		c-0.4,0.4-0.8,1.3-1.5,1.8c-0.6,0.5-2.3,0.4-2.7,1c-0.4,0.6,0.4,1.5,0.4,3c0,0.6-0.5,1-0.6,1.4c-0.1,0.5-0.2,0.8,0,1.2
		c0.4,0.6,0.9,0.8,4.3,1.5c1.8,0.4,3.5,1.4,4.6,1.5c1.1,0.1,3,0,3-2.7C21,39.9,20.1,39.5,19.2,37.9z"/>
	<path fill="#FFC107" d="M21.1,19.8C20.5,19.4,20,19,20,18.4c0-0.6,0.4-0.8,1-1.3c0.1-0.1,1.2-1.1,2.3-1.1s2.4,0.7,2.9,0.9
		c0.9,0.2,1.8,0.4,1.7,1.1c-0.1,1-0.2,1.2-1.2,1.7c-0.7,0.2-2,1.3-2.9,1.3c-0.4,0-1,0-1.4-0.1C22.1,20.8,21.6,20.3,21.1,19.8z"/>
</g>
<g>
	<path fill="#634703" d="M20.9,19c0.2,0.2,0.5,0.4,0.8,0.5c0.2,0.1,0.5,0.2,0.5,0.2c0.4,0,0.7,0,0.9,0c0.5,0,1.2-0.2,1.9-0.6
		c0.7-0.3,0.8-0.5,1.3-0.7c0.5-0.3,1-0.6,0.8-0.7c-0.2-0.1-0.4,0-1.1,0.4c-0.6,0.4-1.1,0.6-1.7,0.9c-0.3,0.1-0.7,0.3-1,0.3
		c-0.3,0-0.6,0-0.9,0c-0.3,0-0.5-0.1-0.8-0.2c-0.2-0.1-0.3-0.2-0.4-0.2c-0.2-0.1-0.6-0.5-0.8-0.6c0,0-0.2,0-0.1,0.1
		C20.6,18.7,20.7,18.8,20.9,19z"/>
	<path fill="#634703" d="M23.9,16.8c0.1,0.2,0.3,0.2,0.4,0.3c0.1,0.1,0.2,0.1,0.2,0.1c0.1-0.1,0-0.3-0.1-0.3
		C24.4,16.7,23.9,16.7,23.9,16.8z"/>
	<path fill="#634703" d="M22.3,17c0,0.1,0.2,0.2,0.2,0.1c0.1-0.1,0.2-0.2,0.3-0.2c0.2-0.1,0.1-0.2-0.2-0.2
		C22.4,16.8,22.4,16.9,22.3,17z"/>
</g>
<path fill="#455A64" d="M32,34.7c0,0.1,0,0.2,0,0.3c0.2,0.4,0.7,0.5,1.1,0.5c0.6,0,1.2-0.4,1.5-0.8c0-0.1,0.1-0.2,0.2-0.3
	c0.2-0.3,0.3-0.5,0.4-0.6c0,0-0.1-0.1-0.1-0.2c-0.1-0.2-0.4-0.4-0.8-0.5c-0.3-0.1-0.8-0.2-1-0.2c-0.9-0.1-1.4,0.2-1.7,0.5
	c0,0,0.1,0,0.1,0.1c0.2,0.2,0.3,0.4,0.3,0.7C32.1,34.4,32,34.5,32,34.7z"/>
</svg>
</symbol>

    <!-- nginx icon -->
    <symbol id="nginx" fill="none" viewBox="0 0 512 512">
    <svg xmlns="http://www.w3.org/2000/svg" viewBox="0 0 128 128"><path d="M24.5 50.5c-1.5 0-2.5 1.2-2.5 2.7v14.1l-15.9-16c-.8-.8-2.2-1-3.2-.6S1 52.1 1 53.2v20.7c0 1.5 1.5 2.7 3 2.7s3-1.2 3-2.7V59.8l16.1 16c.5.5 1.2.8 1.9.8.3 0 .4-.1.7-.2 1-.4 1.3-1.4 1.3-2.5V53.3c0-1.5-1-2.8-2.5-2.8zm19.7 11.8c-1.4 0-2.7 1.4-2.7 2.8s1.3 2.8 2.7 2.8l6.6.4-1.5 3.7h-8.5l-4.2-7.9 4.3-8.1H50l2.1 4h5.5L54 52.1l-.8-1.1H37.6l-.7 1.2L31 62.5l-.7 1.3.7 1.3 5.8 10.3.8 1.6h15.1l.7-1.7 4.3-9 1.9-4.3h-4.4l-11 .3zM65 50.5c-1.4 0-3 1.3-3 2.7V60h6v-6.7c0-1.5-1.6-2.8-3-2.8zm30.4.3c-1-.4-2.4-.2-3.1.6L76 67.4V53.3c0-1.5-1-2.7-2.5-2.7S71 51.8 71 53.3V74c0 1.1.7 2.1 1.7 2.5.3.1.7.2 1 .2.7 0 1.6-.3 2.1-.8l16.2-16V74c0 1.5 1 2.7 2.5 2.7S97 75.5 97 74V53.3c0-1.1-.6-2.1-1.6-2.5zm21.8 12.8l8.4-8.4c1.1-1.1 1.1-2.8 0-3.8-1.1-1.1-2.8-1.1-3.8 0l-8.4 8.4-8.4-8.4c-1.1-1.1-2.8-1.1-3.8 0-1.1 1.1-1.1 2.8 0 3.8l8.4 8.4-8.4 8.4c-1.1 1.1-1.1 2.8 0 3.8.5.5 1.2.8 1.9.8s1.4-.3 1.9-.8l8.4-8.4 8.4 8.4c.5.5 1.2.8 1.9.8s1.4-.3 1.9-.8c1.1-1.1 1.1-2.8 0-3.8l-8.4-8.4zM62 73.9c0 1.4 1.5 2.7 3 2.7 1.4 0 3-1.3 3-2.7V62h-6v11.9z" fill="#090"/></svg>
    </symbol>

    <!-- tailwind icon -->
    <symbol id="tailwind" viewBox="0 0 47 40" fill="none">
      <path fill="#6366f1" d="M23.5 6.5C17.5 6.5 13.75 9.5 12.25 15.5C14.5 12.5 17.125 11.375 20.125 12.125C21.8367 12.5529 23.0601 13.7947 24.4142 15.1692C26.6202 17.4084 29.1734 20 34.75 20C40.75 20 44.5 17 46 11C43.75 14 41.125 15.125 38.125 14.375C36.4133 13.9471 35.1899 12.7053 33.8357 11.3308C31.6297 9.09158 29.0766 6.5 23.5 6.5ZM12.25 20C6.25 20 2.5 23 1 29C3.25 26 5.875 24.875 8.875 25.625C10.5867 26.0529 11.8101 27.2947 13.1642 28.6693C15.3702 30.9084 17.9234 33.5 23.5 33.5C29.5 33.5 33.25 30.5 34.75 24.5C32.5 27.5 29.875 28.625 26.875 27.875C25.1633 27.4471 23.9399 26.2053 22.5858 24.8307C20.3798 22.5916 17.8266 20 12.25 20Z"/>
    </symbol>
    <symbol id="cloudflare">
    <svg xmlns="http://www.w3.org/2000/svg" viewBox="0 0 128 128">
    <path fill="#FFF" d="m115.679 69.288-15.591-8.94-2.689-1.163-63.781.436v32.381h82.061z"/>
    <path fill="#F38020" d="M87.295 89.022c.763-2.617.472-5.015-.8-6.796-1.163-1.635-3.125-2.58-5.488-2.689l-44.737-.581c-.291 0-.545-.145-.691-.363s-.182-.509-.109-.8c.145-.436.581-.763 1.054-.8l45.137-.581c5.342-.254 11.157-4.579 13.192-9.885l2.58-6.723c.109-.291.145-.581.073-.872-2.906-13.158-14.644-22.97-28.672-22.97-12.938 0-23.913 8.359-27.838 19.952a13.35 13.35 0 0 0-9.267-2.58c-6.215.618-11.193 5.597-11.811 11.811-.145 1.599-.036 3.162.327 4.615C10.104 70.051 2 78.337 2 88.549c0 .909.073 1.817.182 2.726a.895.895 0 0 0 .872.763h82.57c.472 0 .909-.327 1.054-.8l.617-2.216z"/>
    <path fill="#FAAE40" d="M101.542 60.275c-.4 0-.836 0-1.236.036-.291 0-.545.218-.654.509l-1.744 6.069c-.763 2.617-.472 5.015.8 6.796 1.163 1.635 3.125 2.58 5.488 2.689l9.522.581c.291 0 .545.145.691.363.145.218.182.545.109.8-.145.436-.581.763-1.054.8l-9.924.582c-5.379.254-11.157 4.579-13.192 9.885l-.727 1.853c-.145.363.109.727.509.727h34.089c.4 0 .763-.254.872-.654.581-2.108.909-4.325.909-6.614 0-13.447-10.975-24.422-24.458-24.422"/>
    </svg>
    </symbol>

    <!-- GitHub icon -->
    <symbol id="github" viewBox="0 0 24 24">
      <!-- GitHub SVG content -->
    </symbol>

    <!-- VPS icon -->
    <symbol id="vps" viewBox="0 0 24 24">
      <!-- VPS SVG content -->
    </symbol>

    <!-- WordPress icon -->
    <symbol id="wordpress" viewBox="0 0 24 24">
      <!-- WordPress SVG content -->
    </symbol>

    <!-- Google Analytics icon -->
    <symbol id="google-analytics" viewBox="0 0 24 24">
      <!-- Google Analytics SVG content -->
    </symbol>

    <!-- Domains icon -->
    <symbol id="domains" viewBox="0 0 24 24">
      <!-- Domains SVG content -->
    </symbol>

    <!-- Grafana icon -->
    <symbol id="grafana" viewBox="0 0 24 24">
      <!-- Grafana SVG content -->
    </symbol>

    <!-- DigitalOcean icon -->
    <symbol id="digitalocean" viewBox="0 0 24 24">
      <!-- DigitalOcean SVG content -->
    </symbol>

    <!-- JIRA icon -->
    <symbol id="jira" viewBox="0 0 24 24">
      <!-- JIRA SVG content -->
    </symbol>

    <!-- Ubiquiti icon -->
    <symbol id="ubiquiti" viewBox="0 0 24 24">
      <!-- Ubiquiti SVG content -->
    </symbol>

    <!-- Google Workspace icon -->
    <symbol id="google-workspace" viewBox="0 0 24 24">
      <!-- Google Workspace SVG content -->
    </symbol>
  </defs>
</svg>