<svg xmlns="http://www.w3.org/2000/svg">
  <defs>
    <!-- entraID -->
    <symbol id="entraID" viewBox="0 0 85 107">
    <svg viewBox="0 0 128 128" xmlns="http://www.w3.org/2000/svg"><defs><linearGradient id="azure-original-a" x1="60.919" y1="9.602" x2="18.667" y2="134.423" gradientUnits="userSpaceOnUse"><stop stop-color="#114A8B"/><stop offset="1" stop-color="#0669BC"/></linearGradient><linearGradient id="azure-original-b" x1="74.117" y1="67.772" x2="64.344" y2="71.076" gradientUnits="userSpaceOnUse"><stop stop-opacity=".3"/><stop offset=".071" stop-opacity=".2"/><stop offset=".321" stop-opacity=".1"/><stop offset=".623" stop-opacity=".05"/><stop offset="1" stop-opacity="0"/></linearGradient><linearGradient id="azure-original-c" x1="68.742" y1="5.961" x2="115.122" y2="129.525" gradientUnits="userSpaceOnUse"><stop stop-color="#3CCBF4"/><stop offset="1" stop-color="#2892DF"/></linearGradient></defs><path d="M46.09.002h40.685L44.541 125.137a6.485 6.485 0 01-6.146 4.413H6.733a6.482 6.482 0 01-5.262-2.699 6.474 6.474 0 01-.876-5.848L39.944 4.414A6.488 6.488 0 0146.09 0z" fill="url(#azure-original-a)" transform="translate(.587 4.468) scale(.91904)"/><path d="M97.28 81.607H37.987a2.743 2.743 0 00-1.874 4.751l38.1 35.562a5.991 5.991 0 004.087 1.61h33.574z" fill="#0078d4"/><path d="M46.09.002A6.434 6.434 0 0039.93 4.5L.644 120.897a6.469 6.469 0 006.106 8.653h32.48a6.942 6.942 0 005.328-4.531l7.834-23.089 27.985 26.101a6.618 6.618 0 004.165 1.519h36.396l-15.963-45.616-46.533.011L86.922.002z" fill="url(#azure-original-b)" transform="translate(.587 4.468) scale(.91904)"/><path d="M98.055 4.408A6.476 6.476 0 0091.917.002H46.575a6.478 6.478 0 016.137 4.406l39.35 116.594a6.476 6.476 0 01-6.137 8.55h45.344a6.48 6.48 0 006.136-8.55z" fill="url(#azure-original-c)" transform="translate(.587 4.468) scale(.91904)"/></svg>
    </symbol>

    <!-- M365 icon -->
    <symbol id="M365" viewBox="0 0 630 630">
    <svg xmlns="http://www.w3.org/2000/svg" id="image-2" fill="none" viewBox="4 2 40 44">
                                    <path d="M20.0842 3.02588L19.8595 3.16179C19.5021 3.37799 19.1654 3.61972 18.8512 3.88385L19.4993 3.42798H25L26 11L21 16L16 19.4754V23.4829C16 26.2819 17.4629 28.8774 19.8574 30.3268L25.1211 33.5129L14 40.0002H11.8551L7.85737 37.5804C5.46286 36.131 4 33.5355 4 30.7365V17.2606C4 14.4607 5.46379 11.8645 7.85952 10.4154L19.8595 3.15687C19.9339 3.11189 20.0088 3.06823 20.0842 3.02588Z" fill="url(#paint0_radial_2994_8373)"/>
                                    <path d="M20.0842 3.02588L19.8595 3.16179C19.5021 3.37799 19.1654 3.61972 18.8512 3.88385L19.4993 3.42798H25L26 11L21 16L16 19.4754V23.4829C16 26.2819 17.4629 28.8774 19.8574 30.3268L25.1211 33.5129L14 40.0002H11.8551L7.85737 37.5804C5.46286 36.131 4 33.5355 4 30.7365V17.2606C4 14.4607 5.46379 11.8645 7.85952 10.4154L19.8595 3.15687C19.9339 3.11189 20.0088 3.06823 20.0842 3.02588Z" fill="url(#paint1_linear_2994_8373)"/>
                                    <path d="M32 19V23.4803C32 26.2793 30.5371 28.8748 28.1426 30.3242L16.1426 37.5878C13.6878 39.0737 10.6335 39.1273 8.1355 37.7487L19.8573 44.844C22.4039 46.3855 25.5959 46.3855 28.1426 44.844L40.1426 37.5803C42.5371 36.1309 43.9999 33.5354 43.9999 30.7364V27.5L42.9999 26L32 19Z" fill="url(#paint2_radial_2994_8373)"/>
                                    <path d="M32 19V23.4803C32 26.2793 30.5371 28.8748 28.1426 30.3242L16.1426 37.5878C13.6878 39.0737 10.6335 39.1273 8.1355 37.7487L19.8573 44.844C22.4039 46.3855 25.5959 46.3855 28.1426 44.844L40.1426 37.5803C42.5371 36.1309 43.9999 33.5354 43.9999 30.7364V27.5L42.9999 26L32 19Z" fill="url(#paint3_linear_2994_8373)"/>
                                    <path d="M40.1405 10.4153L28.1405 3.15678C25.6738 1.66471 22.6021 1.61849 20.0979 3.01811L19.8595 3.16231C17.4638 4.61143 16 7.20757 16 10.0075V19.4914L19.8595 17.1568C22.4051 15.6171 25.5949 15.6171 28.1405 17.1568L40.1405 24.4153C42.4613 25.8192 43.9076 28.2994 43.9957 30.9985C43.9986 30.9113 44 30.824 44 30.7364V17.2605C44 14.4606 42.5362 11.8644 40.1405 10.4153Z" fill="url(#paint4_radial_2994_8373)"/>
                                    <path d="M40.1405 10.4153L28.1405 3.15678C25.6738 1.66471 22.6021 1.61849 20.0979 3.01811L19.8595 3.16231C17.4638 4.61143 16 7.20757 16 10.0075V19.4914L19.8595 17.1568C22.4051 15.6171 25.5949 15.6171 28.1405 17.1568L40.1405 24.4153C42.4613 25.8192 43.9076 28.2994 43.9957 30.9985C43.9986 30.9113 44 30.824 44 30.7364V17.2605C44 14.4606 42.5362 11.8644 40.1405 10.4153Z" fill="url(#paint5_linear_2994_8373)"/>
                                    <path d="M4.00428 30.9984C4.00428 30.9984 4.00428 30.9984 4.00428 30.9984Z" fill="url(#paint6_radial_2994_8373)"/>
                                    <path d="M4.00428 30.9984C4.00428 30.9984 4.00428 30.9984 4.00428 30.9984Z" fill="url(#paint7_linear_2994_8373)"/>
                                    <defs>
                                        <radialGradient id="paint0_radial_2994_8373" cx="0" cy="0" r="1" gradientUnits="userSpaceOnUse" gradientTransform="translate(17.4186 10.6383) rotate(110.528) scale(33.3657 58.1966)">
                                            <stop offset="0.06441" stop-color="#AE7FE2"/>
                                            <stop offset="1" stop-color="#0078D4"/>
                                        </radialGradient>
                                        <linearGradient id="paint1_linear_2994_8373" x1="17.5119" y1="37.8685" x2="12.7513" y2="29.6347" gradientUnits="userSpaceOnUse">
                                            <stop offset="0" stop-color="#114A8B"/>
                                            <stop offset="1" stop-color="#0078D4" stop-opacity="0"/>
                                        </linearGradient>
                                        <radialGradient id="paint2_radial_2994_8373" cx="0" cy="0" r="1" gradientUnits="userSpaceOnUse" gradientTransform="translate(10.4299 36.3511) rotate(-8.36717) scale(31.0503 20.5108)">
                                            <stop offset="0.133928" stop-color="#D59DFF"/>
                                            <stop offset="1" stop-color="#5E438F"/>
                                        </radialGradient>
                                        <linearGradient id="paint3_linear_2994_8373" x1="40.3566" y1="25.3768" x2="35.2552" y2="32.6916" gradientUnits="userSpaceOnUse">
                                            <stop offset="0" stop-color="#493474"/>
                                            <stop offset="1" stop-color="#8C66BA" stop-opacity="0"/>
                                        </linearGradient>
                                        <radialGradient id="paint4_radial_2994_8373" cx="0" cy="0" r="1" gradientUnits="userSpaceOnUse" gradientTransform="translate(41.0552 26.504) rotate(-165.772) scale(24.9228 41.9552)">
                                            <stop offset="0.0584996" stop-color="#50E6FF"/>
                                            <stop offset="1" stop-color="#436DCD"/>
                                        </radialGradient>
                                        <linearGradient id="paint5_linear_2994_8373" x1="16.9758" y1="3.05655" x2="24.4868" y2="3.05655" gradientUnits="userSpaceOnUse">
                                            <stop offset="0" stop-color="#2D3F80"/>
                                            <stop offset="1" stop-color="#436DCD" stop-opacity="0"/>
                                        </linearGradient>
                                        <radialGradient id="paint6_radial_2994_8373" cx="0" cy="0" r="1" gradientUnits="userSpaceOnUse" gradientTransform="translate(41.0552 26.504) rotate(-165.772) scale(24.9228 41.9552)">
                                            <stop offset="0.0584996" stop-color="#50E6FF"/>
                                            <stop offset="1" stop-color="#436DCD"/>
                                        </radialGradient>
                                        <linearGradient id="paint7_linear_2994_8373" x1="16.9758" y1="3.05655" x2="24.4868" y2="3.05655" gradientUnits="userSpaceOnUse">
                                            <stop offset="0" stop-color="#2D3F80"/>
                                            <stop offset="1" stop-color="#436DCD" stop-opacity="0"/>
                                        </linearGradient>
                                    </defs>
                            </svg>
    </symbol>
    <!-- linux icon-->
    <symbol id="linux" viewBox="0 0 128 128">
    <svg version="1.1"  xmlns="http://www.w3.org/2000/svg" xmlns:xlink="http://www.w3.org/1999/xlink" x="0px" y="0px"
	 viewBox="0 2 48 48" enable-background="new 0 2 48 48" xml:space="preserve">
<polygon fill="#ECEFF1" points="20.1,18.2 20.2,20.5 18.6,23.5 16.1,28.4 15.6,32.5 17.4,38.3 21.5,40.6 27.7,40.6 33.5,36.2 
	36.1,29.3 30.1,22 28.4,17.9 "/>
<path fill="#263238" d="M34.3,23.9c-1.6-2.3-2.9-3.7-3.6-6.6c-0.7-2.9,0.2-2.1-0.4-4.6c-0.3-1.3-0.8-2.2-1.3-2.9
	c-0.6-0.7-1.3-1.1-1.7-1.2c-0.9-0.5-3-1.3-5.6,0.1c-2.7,1.4-2.4,4.4-1.9,10.5c0,0.4-0.1,0.9-0.3,1.3c-0.4,0.9-1.1,1.7-1.7,2.4
	c-0.7,1-1.4,2-1.9,3.1c-1.2,2.3-2.3,5.2-2,6.3c0.5-0.1,6.8,9.5,6.8,9.7c0.4-0.1,2.1-0.1,3.6-0.1c2.1-0.1,3.3-0.2,5,0.2
	c0-0.3-0.1-0.6-0.1-0.9c0-0.6,0.1-1.1,0.2-1.8c0.1-0.5,0.2-1,0.3-1.6c-1,0.9-2.8,1.9-4.5,2.2c-1.5,0.3-4-0.2-5.2-1.7
	c0.1,0,0.3,0,0.4-0.1c0.3-0.1,0.6-0.2,0.7-0.4c0.3-0.5,0.1-1-0.1-1.3c-0.2-0.3-1.7-1.4-2.4-2c-0.7-0.6-1.1-0.9-1.5-1.3
	c0,0-0.6-0.6-0.8-0.8c-0.2-0.2-0.3-0.4-0.4-0.5c-0.2-0.5-0.3-1.1-0.2-1.9c0.1-1.1,0.5-2,1-3c0.2-0.4,0.7-1.2,0.7-1.2
	s-1.7,4.2-0.8,5.5c0,0,0.1-1.3,0.5-2.6c0.3-0.9,0.8-2.2,1.4-2.9s2.1-3.3,2.2-4.9c0-0.7,0.1-1.4,0.1-1.9c-0.4-0.4,6.6-1.4,7-0.3
	c0.1,0.4,1.5,4,2.3,5.9c0.4,0.9,0.9,1.7,1.2,2.7c0.3,1.1,0.5,2.6,0.5,4.1c0,0.3,0,0.8-0.1,1.3c0.2,0,4.1-4.2-0.5-7.7
	c0,0,2.8,1.3,2.9,3.9c0.1,2.1-0.8,3.8-1,4.1c0.1,0,2.1,0.9,2.2,0.9c0.4,0,1.2-0.3,1.2-0.3c0.1-0.3,0.4-1.1,0.4-1.4
	C37.6,29.9,35.9,26.2,34.3,23.9z"/>
<g>
	<ellipse fill="#ECEFF1" cx="21.6" cy="15.3" rx="1.3" ry="2"/>
	<ellipse fill="#ECEFF1" cx="26.1" cy="15.2" rx="1.7" ry="2.3"/>
</g>
<g>
	
		<ellipse transform="matrix(-0.1254 -0.9921 0.9921 -0.1254 8.9754 38.9969)" fill="#212121" cx="21.7" cy="15.5" rx="1.2" ry="0.7"/>
	<ellipse fill="#212121" cx="26" cy="15.6" rx="1" ry="1.3"/>
</g>
<g>
	<path fill="#FFC107" d="M39.3,37.6c-0.4-0.2-1.1-0.5-1.7-1.4c-0.3-0.5-0.2-1.9-0.7-2.5c-0.3-0.4-0.7-0.2-0.8-0.2
		c-0.9,0.2-3,1.6-4.4,0c-0.2-0.2-0.5-0.5-1-0.5c-0.5,0-0.7,0.2-0.9,0.6s-0.2,0.7-0.2,1.7c0,0.8,0,1.7-0.1,2.4
		c-0.2,1.7-0.5,2.7-0.5,3.7c0,1.1,0.3,1.8,0.7,2.1c0.3,0.3,0.8,0.5,1.9,0.5c1.1,0,1.8-0.4,2.5-1.1c0.5-0.5,0.9-0.7,2.3-1.7
		c1.1-0.7,2.8-1.6,3.1-1.9c0.2-0.2,0.5-0.3,0.5-0.9C40,37.9,39.6,37.7,39.3,37.6z"/>
	<path fill="#FFC107" d="M19.2,37.9c-1-1.6-1.1-1.9-1.8-2.9c-0.6-1-1.9-2.9-2.7-2.9c-0.6,0-0.9,0.3-1.3,0.7
		c-0.4,0.4-0.8,1.3-1.5,1.8c-0.6,0.5-2.3,0.4-2.7,1c-0.4,0.6,0.4,1.5,0.4,3c0,0.6-0.5,1-0.6,1.4c-0.1,0.5-0.2,0.8,0,1.2
		c0.4,0.6,0.9,0.8,4.3,1.5c1.8,0.4,3.5,1.4,4.6,1.5c1.1,0.1,3,0,3-2.7C21,39.9,20.1,39.5,19.2,37.9z"/>
	<path fill="#FFC107" d="M21.1,19.8C20.5,19.4,20,19,20,18.4c0-0.6,0.4-0.8,1-1.3c0.1-0.1,1.2-1.1,2.3-1.1s2.4,0.7,2.9,0.9
		c0.9,0.2,1.8,0.4,1.7,1.1c-0.1,1-0.2,1.2-1.2,1.7c-0.7,0.2-2,1.3-2.9,1.3c-0.4,0-1,0-1.4-0.1C22.1,20.8,21.6,20.3,21.1,19.8z"/>
</g>
<g>
	<path fill="#634703" d="M20.9,19c0.2,0.2,0.5,0.4,0.8,0.5c0.2,0.1,0.5,0.2,0.5,0.2c0.4,0,0.7,0,0.9,0c0.5,0,1.2-0.2,1.9-0.6
		c0.7-0.3,0.8-0.5,1.3-0.7c0.5-0.3,1-0.6,0.8-0.7c-0.2-0.1-0.4,0-1.1,0.4c-0.6,0.4-1.1,0.6-1.7,0.9c-0.3,0.1-0.7,0.3-1,0.3
		c-0.3,0-0.6,0-0.9,0c-0.3,0-0.5-0.1-0.8-0.2c-0.2-0.1-0.3-0.2-0.4-0.2c-0.2-0.1-0.6-0.5-0.8-0.6c0,0-0.2,0-0.1,0.1
		C20.6,18.7,20.7,18.8,20.9,19z"/>
	<path fill="#634703" d="M23.9,16.8c0.1,0.2,0.3,0.2,0.4,0.3c0.1,0.1,0.2,0.1,0.2,0.1c0.1-0.1,0-0.3-0.1-0.3
		C24.4,16.7,23.9,16.7,23.9,16.8z"/>
	<path fill="#634703" d="M22.3,17c0,0.1,0.2,0.2,0.2,0.1c0.1-0.1,0.2-0.2,0.3-0.2c0.2-0.1,0.1-0.2-0.2-0.2
		C22.4,16.8,22.4,16.9,22.3,17z"/>
</g>
<path fill="#455A64" d="M32,34.7c0,0.1,0,0.2,0,0.3c0.2,0.4,0.7,0.5,1.1,0.5c0.6,0,1.2-0.4,1.5-0.8c0-0.1,0.1-0.2,0.2-0.3
	c0.2-0.3,0.3-0.5,0.4-0.6c0,0-0.1-0.1-0.1-0.2c-0.1-0.2-0.4-0.4-0.8-0.5c-0.3-0.1-0.8-0.2-1-0.2c-0.9-0.1-1.4,0.2-1.7,0.5
	c0,0,0.1,0,0.1,0.1c0.2,0.2,0.3,0.4,0.3,0.7C32.1,34.4,32,34.5,32,34.7z"/>
</svg>
</symbol>

    <!-- nginx icon -->
    <symbol id="nginx" fill="none" viewBox="0 0 512 512">
    <svg xmlns="http://www.w3.org/2000/svg" viewBox="0 0 128 128"><path d="M24.5 50.5c-1.5 0-2.5 1.2-2.5 2.7v14.1l-15.9-16c-.8-.8-2.2-1-3.2-.6S1 52.1 1 53.2v20.7c0 1.5 1.5 2.7 3 2.7s3-1.2 3-2.7V59.8l16.1 16c.5.5 1.2.8 1.9.8.3 0 .4-.1.7-.2 1-.4 1.3-1.4 1.3-2.5V53.3c0-1.5-1-2.8-2.5-2.8zm19.7 11.8c-1.4 0-2.7 1.4-2.7 2.8s1.3 2.8 2.7 2.8l6.6.4-1.5 3.7h-8.5l-4.2-7.9 4.3-8.1H50l2.1 4h5.5L54 52.1l-.8-1.1H37.6l-.7 1.2L31 62.5l-.7 1.3.7 1.3 5.8 10.3.8 1.6h15.1l.7-1.7 4.3-9 1.9-4.3h-4.4l-11 .3zM65 50.5c-1.4 0-3 1.3-3 2.7V60h6v-6.7c0-1.5-1.6-2.8-3-2.8zm30.4.3c-1-.4-2.4-.2-3.1.6L76 67.4V53.3c0-1.5-1-2.7-2.5-2.7S71 51.8 71 53.3V74c0 1.1.7 2.1 1.7 2.5.3.1.7.2 1 .2.7 0 1.6-.3 2.1-.8l16.2-16V74c0 1.5 1 2.7 2.5 2.7S97 75.5 97 74V53.3c0-1.1-.6-2.1-1.6-2.5zm21.8 12.8l8.4-8.4c1.1-1.1 1.1-2.8 0-3.8-1.1-1.1-2.8-1.1-3.8 0l-8.4 8.4-8.4-8.4c-1.1-1.1-2.8-1.1-3.8 0-1.1 1.1-1.1 2.8 0 3.8l8.4 8.4-8.4 8.4c-1.1 1.1-1.1 2.8 0 3.8.5.5 1.2.8 1.9.8s1.4-.3 1.9-.8l8.4-8.4 8.4 8.4c.5.5 1.2.8 1.9.8s1.4-.3 1.9-.8c1.1-1.1 1.1-2.8 0-3.8l-8.4-8.4zM62 73.9c0 1.4 1.5 2.7 3 2.7 1.4 0 3-1.3 3-2.7V62h-6v11.9z" fill="#090"/></svg>
    </symbol>

    <!-- Docker icon -->
    <symbol id="docker" viewBox="0 0 128 128"><path fill-rule="evenodd" clip-rule="evenodd" fill="#3A4D54" d="M73.8 50.8h11.3v11.5h5.7c2.6 0 5.3-.5 7.8-1.3 1.2-.4 2.6-1 3.8-1.7-1.6-2.1-2.4-4.7-2.6-7.3-.3-3.5.4-8.1 2.8-10.8l1.2-1.4 1.4 1.1c3.6 2.9 6.5 6.8 7.1 11.4 4.3-1.3 9.3-1 13.1 1.2l1.5.9-.8 1.6c-3.2 6.2-9.9 8.2-16.4 7.8-9.8 24.3-31 35.8-56.8 35.8-13.3 0-25.5-5-32.5-16.8l-.1-.2-1-2.1c-2.4-5.2-3.1-10.9-2.6-16.6l.2-1.7h9.6V50.8h11.3V39.6h22.5V28.3h13.5v22.5z"/><path fill="#00AADA" d="M110.4 55.1c.8-5.9-3.6-10.5-6.4-12.7-3.1 3.6-3.6 13.2 1.3 17.2-2.8 2.4-8.5 4.7-14.5 4.7H18.6c-.6 6.2.5 11.9 3 16.8l.8 1.5c.5.9 1.1 1.7 1.7 2.6 3 .2 5.7.3 8.2.2 4.9-.1 8.9-.7 12-1.7.5-.2.9.1 1.1.5.2.5-.1.9-.5 1.1-.4.1-.8.3-1.3.4-2.4.7-5 1.1-8.3 1.3h-.6c-1.3.1-2.7.1-4.2.1-1.6 0-3.1 0-4.9-.1 6 6.8 15.4 10.8 27.2 10.8 25 0 46.2-11.1 55.5-35.9 6.7.7 13.1-1 16-6.7-4.5-2.7-10.5-1.8-13.9-.1z"/><path fill="#28B8EB" d="M110.4 55.1c.8-5.9-3.6-10.5-6.4-12.7-3.1 3.6-3.6 13.2 1.3 17.2-2.8 2.4-8.5 4.7-14.5 4.7h-68c-.3 9.5 3.2 16.7 9.5 21 4.9-.1 8.9-.7 12-1.7.5-.2.9.1 1.1.5.2.5-.1.9-.5 1.1-.4.1-.8.3-1.3.4-2.4.7-5.2 1.2-8.5 1.4l-.1-.1c8.5 4.4 20.8 4.3 35-1.1 15.8-6.1 30.6-17.7 40.9-30.9-.2.1-.4.1-.5.2z"/><path fill="#028BB8" d="M18.7 71.8c.4 3.3 1.4 6.4 2.9 9.3l.8 1.5c.5.9 1.1 1.7 1.7 2.6 3 .2 5.7.3 8.2.2 4.9-.1 8.9-.7 12-1.7.5-.2.9.1 1.1.5.2.5-.1.9-.5 1.1-.4.1-.8.3-1.3.4-2.4.7-5.2 1.2-8.5 1.4h-.4c-1.3.1-2.7.1-4.1.1-1.6 0-3.2 0-4.9-.1 6 6.8 15.5 10.8 27.3 10.8 21.4 0 40-8.1 50.8-26H18.7v-.1z"/><path fill="#019BC6" d="M23.5 71.8c1.3 5.8 4.3 10.4 8.8 13.5 4.9-.1 8.9-.7 12-1.7.5-.2.9.1 1.1.5.2.5-.1.9-.5 1.1-.4.1-.8.3-1.3.4-2.4.7-5.2 1.2-8.6 1.4 8.5 4.4 20.8 4.3 34.9-1.1 8.5-3.3 16.8-8.2 24.2-14.1H23.5z"/><path fill-rule="evenodd" clip-rule="evenodd" fill="#00ACD3" d="M28.4 52.7h9.8v9.8h-9.8v-9.8zm.8.8h.8v8.1h-.8v-8.1zm1.4 0h.8v8.1h-.8v-8.1zm1.5 0h.8v8.1h-.8v-8.1zm1.5 0h.8v8.1h-.8v-8.1zm1.5 0h.8v8.1h-.8v-8.1zm1.5 0h.8v8.1h-.8v-8.1zm3-12h9.8v9.8h-9.8v-9.8zm.9.8h.8v8.1h-.8v-8.1zm1.4 0h.8v8.1h-.8v-8.1zm1.5 0h.8v8.1h-.8v-8.1zm1.5 0h.8v8.1h-.8v-8.1zm1.4 0h.8v8.1h-.8v-8.1zm1.5 0h.8v8.1h-.8v-8.1z"/><path fill-rule="evenodd" clip-rule="evenodd" fill="#23C2EE" d="M39.6 52.7h9.8v9.8h-9.8v-9.8zm.9.8h.8v8.1h-.8v-8.1zm1.4 0h.8v8.1h-.8v-8.1zm1.5 0h.8v8.1h-.8v-8.1zm1.5 0h.8v8.1h-.8v-8.1zm1.4 0h.8v8.1h-.8v-8.1zm1.5 0h.8v8.1h-.8v-8.1z"/><path fill-rule="evenodd" clip-rule="evenodd" fill="#00ACD3" d="M50.9 52.7h9.8v9.8h-9.8v-9.8zm.8.8h.8v8.1h-.8v-8.1zm1.5 0h.8v8.1h-.8v-8.1zm1.5 0h.8v8.1h-.8v-8.1zm1.4 0h.8v8.1h-.8v-8.1zm1.5 0h.8v8.1h-.8v-8.1zm1.5 0h.8v8.1h-.8v-8.1z"/><path fill-rule="evenodd" clip-rule="evenodd" fill="#23C2EE" d="M50.9 41.5h9.8v9.8h-9.8v-9.8zm.8.8h.8v8.1h-.8v-8.1zm1.5 0h.8v8.1h-.8v-8.1zm1.5 0h.8v8.1h-.8v-8.1zm1.4 0h.8v8.1h-.8v-8.1zm1.5 0h.8v8.1h-.8v-8.1zm1.5 0h.8v8.1h-.8v-8.1zm3.1 10.4H72v9.8h-9.8v-9.8zm.8.8h.8v8.1H63v-8.1zm1.5 0h.8v8.1h-.8v-8.1zm1.4 0h.8v8.1h-.8v-8.1zm1.5 0h.8v8.1h-.8v-8.1zm1.5 0h.8v8.1h-.8v-8.1zm1.5 0h.8v8.1h-.8v-8.1z"/><path fill-rule="evenodd" clip-rule="evenodd" fill="#00ACD3" d="M62.2 41.5H72v9.8h-9.8v-9.8zm.8.8h.8v8.1H63v-8.1zm1.5 0h.8v8.1h-.8v-8.1zm1.4 0h.8v8.1h-.8v-8.1zm1.5 0h.8v8.1h-.8v-8.1zm1.5 0h.8v8.1h-.8v-8.1zm1.5 0h.8v8.1h-.8v-8.1z"/><path fill-rule="evenodd" clip-rule="evenodd" fill="#23C2EE" d="M62.2 30.2H72V40h-9.8v-9.8zm.8.8h.8v8.1H63V31zm1.5 0h.8v8.1h-.8V31zm1.4 0h.8v8.1h-.8V31zm1.5 0h.8v8.1h-.8V31zm1.5 0h.8v8.1h-.8V31zm1.5 0h.8v8.1h-.8V31z"/><path fill-rule="evenodd" clip-rule="evenodd" fill="#00ACD3" d="M73.5 52.7h9.8v9.8h-9.8v-9.8zm.8.8h.8v8.1h-.8v-8.1zm1.4 0h.8v8.1h-.8v-8.1zm1.5 0h.8v8.1h-.8v-8.1zm1.5 0h.8v8.1h-.8v-8.1zm1.5 0h.8v8.1h-.8v-8.1zm1.5 0h.8v8.1h-.8v-8.1z"/><path fill-rule="evenodd" clip-rule="evenodd" fill="#D4EEF1" d="M48.8 78.3c1.5 0 2.7 1.2 2.7 2.7 0 1.5-1.2 2.7-2.7 2.7-1.5 0-2.7-1.2-2.7-2.7 0-1.5 1.2-2.7 2.7-2.7"/><path fill-rule="evenodd" clip-rule="evenodd" fill="#3A4D54" d="M48.8 79.1c.2 0 .5 0 .7.1-.2.1-.4.4-.4.7 0 .4.4.8.8.8.3 0 .6-.2.7-.4.1.2.1.5.1.7 0 1.1-.9 1.9-1.9 1.9-1.1 0-1.9-.9-1.9-1.9 0-1 .8-1.9 1.9-1.9M1.1 72.8h125.4c-2.7-.7-8.6-1.6-7.7-5.2-5 5.7-16.9 4-20 1.2-3.4 4.9-23 3-24.3-.8-4.2 5-17.3 5-21.5 0-1.4 3.8-21 5.7-24.3.8-3 2.8-15 4.5-20-1.2 1.1 3.5-4.9 4.5-7.6 5.2"/><path fill="#BFDBE0" d="M56 97.8c-6.7-3.2-10.3-7.5-12.4-12.2-2.5.7-5.5 1.2-8.9 1.4-1.3.1-2.7.1-4.1.1-1.7 0-3.4 0-5.2-.1 6 6 13.6 10.7 27.5 10.8H56z"/><path fill="#D4EEF1" d="M46.1 89.9c-.9-1.3-1.8-2.8-2.5-4.3-2.5.7-5.5 1.2-8.9 1.4 2.3 1.2 5.7 2.4 11.4 2.9z"/>
    </symbol>

    <!-- Cloudflare icon-->
    <symbol id="cloudflare" viewBox="0 0 128 128"><path fill="#FFF" d="m115.679 69.288-15.591-8.94-2.689-1.163-63.781.436v32.381h82.061z"/><path fill="#F38020" d="M87.295 89.022c.763-2.617.472-5.015-.8-6.796-1.163-1.635-3.125-2.58-5.488-2.689l-44.737-.581c-.291 0-.545-.145-.691-.363s-.182-.509-.109-.8c.145-.436.581-.763 1.054-.8l45.137-.581c5.342-.254 11.157-4.579 13.192-9.885l2.58-6.723c.109-.291.145-.581.073-.872-2.906-13.158-14.644-22.97-28.672-22.97-12.938 0-23.913 8.359-27.838 19.952a13.35 13.35 0 0 0-9.267-2.58c-6.215.618-11.193 5.597-11.811 11.811-.145 1.599-.036 3.162.327 4.615C10.104 70.051 2 78.337 2 88.549c0 .909.073 1.817.182 2.726a.895.895 0 0 0 .872.763h82.57c.472 0 .909-.327 1.054-.8l.617-2.216z"/><path fill="#FAAE40" d="M101.542 60.275c-.4 0-.836 0-1.236.036-.291 0-.545.218-.654.509l-1.744 6.069c-.763 2.617-.472 5.015.8 6.796 1.163 1.635 3.125 2.58 5.488 2.689l9.522.581c.291 0 .545.145.691.363.145.218.182.545.109.8-.145.436-.581.763-1.054.8l-9.924.582c-5.379.254-11.157 4.579-13.192 9.885l-.727 1.853c-.145.363.109.727.509.727h34.089c.4 0 .763-.254.872-.654.581-2.108.909-4.325.909-6.614 0-13.447-10.975-24.422-24.458-24.422"/>
    </symbol>

    <!-- GitHub icon -->
    <symbol id="github" viewBox="0 0 128 128"><g fill="#181616"><path fill-rule="evenodd" clip-rule="evenodd" d="M64 5.103c-33.347 0-60.388 27.035-60.388 60.388 0 26.682 17.303 49.317 41.297 57.303 3.017.56 4.125-1.31 4.125-2.905 0-1.44-.056-6.197-.082-11.243-16.8 3.653-20.345-7.125-20.345-7.125-2.747-6.98-6.705-8.836-6.705-8.836-5.48-3.748.413-3.67.413-3.67 6.063.425 9.257 6.223 9.257 6.223 5.386 9.23 14.127 6.562 17.573 5.02.542-3.903 2.107-6.568 3.834-8.076-13.413-1.525-27.514-6.704-27.514-29.843 0-6.593 2.36-11.98 6.223-16.21-.628-1.52-2.695-7.662.584-15.98 0 0 5.07-1.623 16.61 6.19C53.7 35 58.867 34.327 64 34.304c5.13.023 10.3.694 15.127 2.033 11.526-7.813 16.59-6.19 16.59-6.19 3.287 8.317 1.22 14.46.593 15.98 3.872 4.23 6.215 9.617 6.215 16.21 0 23.194-14.127 28.3-27.574 29.796 2.167 1.874 4.097 5.55 4.097 11.183 0 8.08-.07 14.583-.07 16.572 0 1.607 1.088 3.49 4.148 2.897 23.98-7.994 41.263-30.622 41.263-57.294C124.388 32.14 97.35 5.104 64 5.104z"/><path d="M26.484 91.806c-.133.3-.605.39-1.035.185-.44-.196-.685-.605-.543-.906.13-.31.603-.395 1.04-.188.44.197.69.61.537.91zm2.446 2.729c-.287.267-.85.143-1.232-.28-.396-.42-.47-.983-.177-1.254.298-.266.844-.14 1.24.28.394.426.472.984.17 1.255zM31.312 98.012c-.37.258-.976.017-1.35-.52-.37-.538-.37-1.183.01-1.44.373-.258.97-.025 1.35.507.368.545.368 1.19-.01 1.452zm3.261 3.361c-.33.365-1.036.267-1.552-.23-.527-.487-.674-1.18-.343-1.544.336-.366 1.045-.264 1.564.23.527.486.686 1.18.333 1.543zm4.5 1.951c-.147.473-.825.688-1.51.486-.683-.207-1.13-.76-.99-1.238.14-.477.823-.7 1.512-.485.683.206 1.13.756.988 1.237zm4.943.361c.017.498-.563.91-1.28.92-.723.017-1.308-.387-1.315-.877 0-.503.568-.91 1.29-.924.717-.013 1.306.387 1.306.88zm4.598-.782c.086.485-.413.984-1.126 1.117-.7.13-1.35-.172-1.44-.653-.086-.498.422-.997 1.122-1.126.714-.123 1.354.17 1.444.663zm0 0"/></g>
    </symbol>

    <!-- WordPress icon -->
    <symbol id="wordpress" viewBox="0 0 128 128">
    <path fill-rule="evenodd" clip-rule="evenodd" fill="#337BA2" d="M43.257 121.233c.079 1.018.029 2.071.299 3.037.115.408.9.629 1.381.935l.625.401c-.235.137-.469.389-.707.392a165.82 165.82 0 01-5.598.002c-.248-.004-.491-.237-.735-.364.198-.143.388-.391.597-.408 1.251-.105 1.632-.865 1.626-1.989-.011-2.066-.006-4.134.003-6.202.005-1.152-.322-1.993-1.679-2.045-.188-.008-.366-.296-.548-.453.182-.111.366-.321.546-.318 2.39.029 4.79-.024 7.167.177 1.873.159 3.107 1.455 3.234 2.949.138 1.639-.703 2.764-2.605 3.486l-.729.272c1.225 1.158 2.31 2.29 3.516 3.272.535.437 1.293.697 1.989.817 1.393.238 2.149-.361 2.187-1.742.061-2.229.032-4.461.011-6.691-.01-1.022-.449-1.697-1.589-1.753-.215-.01-.42-.253-.629-.388.239-.14.478-.4.715-.399 2.432.02 4.875-.055 7.291.161 4.123.366 6.42 3.797 5.214 7.588-.735 2.312-2.495 3.619-4.759 3.773-3.958.27-7.938.215-11.909.243-.316.002-.706-.341-.944-.623-.914-1.085-1.776-2.213-2.668-3.316-.27-.334-.571-.641-.858-.961l-.444.147zm13.119-5.869c0 2.785-.034 5.484.036 8.18.011.414.41 1.039.78 1.187 1.457.581 3.812-.368 4.47-1.842.881-1.973.988-4.05-.203-5.922-1.175-1.847-3.132-1.663-5.083-1.603zm-13.021 4.561c1.262.032 2.653.313 3.192-1.073.302-.777.234-1.982-.183-2.69-.633-1.076-1.906-.888-3.01-.752l.001 4.515z"/><path fill-rule="evenodd" clip-rule="evenodd" fill="#515151" d="M96.77 119.35c.834-.18 1.661-.154 2.198-.537.451-.32.563-1.116.908-1.886.199.357.386.539.39.724.025 1.38.03 2.761 0 4.141-.005.216-.226.427-.347.641-.136-.114-.339-.2-.399-.346-.733-1.771-.729-1.772-2.843-1.583.309 1.382-.763 3.149.89 4.058.843.463 2.203.371 3.189.068.841-.256 1.48-1.171 2.212-1.798v3.096c-.405.036-.712.086-1.021.086-4.141.006-8.282-.012-12.422.019-.714.006-1.197-.174-1.633-.773-.857-1.182-1.799-2.302-2.725-3.432-.232-.283-.534-.508-1.021-.962 0 1.154-.042 1.981.012 2.802.056.858.469 1.427 1.418 1.534.279.032.529.325.792.5-.271.105-.54.298-.812.303-1.827.026-3.653.025-5.48.001-.28-.004-.558-.173-.866-.275l.156-.303c2.244-.906 2.25-.906 2.248-3.508a343.88 343.88 0 00-.039-4.87c-.017-1.121-.321-2.01-1.689-2.058-.197-.007-.384-.287-.577-.441.226-.113.453-.325.678-.323 2.311.022 4.635-.054 6.93.16 2.512.234 4.065 2.329 3.132 4.257-.51 1.053-1.688 1.783-2.725 2.818.984.9 2.117 2.194 3.491 3.135 1.941 1.33 3.268.571 3.317-1.748.041-1.947-.007-3.896-.015-5.845-.004-1.155-.361-1.994-1.717-2.013-.185-.003-.367-.2-.586-.33.705-.52 7.499-.709 10.448-.332l.19 3.214-.333.136c-.686-.717-.601-2.199-2.02-2.204-1.084-.005-2.168-.119-3.332-.189.003 1.356.003 2.59.003 4.063zm-12.647.566c2.61.105 3.646-.603 3.584-2.364-.061-1.698-1.195-2.383-3.584-2.121v4.485z"/><path fill-rule="evenodd" clip-rule="evenodd" fill="#3179A1" d="M11.555 120.682c.996-2.947 1.979-5.897 3.003-8.834.141-.404.486-.737.737-1.104.248.378.587.725.729 1.14.931 2.719 1.817 5.451 2.722 8.179.072.219.165.43.375.969.928-2.813 1.787-5.308 2.564-7.829.27-.873-.081-1.504-1.097-1.618-.335-.039-.66-.17-1.051-.274.676-.749 5.957-.804 6.827-.108-.236.112-.424.271-.618.279-1.65.064-2.414 1.097-2.884 2.521-1.258 3.81-2.54 7.611-3.817 11.415-.133.395-.3.778-.452 1.166l-.421.03-3.579-10.821-3.619 10.788-.354.022c-.185-.401-.412-.79-.547-1.207-1.167-3.581-2.319-7.167-3.474-10.751-.495-1.539-.99-3.069-3.012-3.167-.132-.006-.253-.229-.38-.35.158-.13.316-.373.476-.375 2.272-.024 4.546-.024 6.818.001.158.001.313.247.47.379-.169.126-.319.309-.508.367-1.82.55-1.951.761-1.378 2.526.723 2.233 1.468 4.457 2.204 6.686l.266-.03z"/><path fill-rule="evenodd" clip-rule="evenodd" fill="#4D4D4D" d="M65.484 111.25c.279-.241.435-.494.587-.491 2.957.044 5.938-.093 8.864.247 2.768.321 4.301 2.919 3.466 5.359-.748 2.189-2.593 2.874-4.68 3.064-.881.081-1.776.013-2.824.013.093 1.453.14 2.78.275 4.098.113 1.114.863 1.56 1.923 1.65.239.021.457.288.684.442-.25.126-.498.36-.75.363-2.191.029-4.384.028-6.575.002-.263-.003-.523-.219-.784-.336.218-.165.432-.463.656-.472 1.463-.056 2.012-.964 2.03-2.235.044-3.081.04-6.162.002-9.243-.016-1.31-.649-2.148-2.072-2.206-.212-.008-.422-.13-.802-.255zm5.523 6.706c2.682.278 3.703.022 4.349-1.167.648-1.192.65-2.439-.116-3.566-1.059-1.559-2.679-1.098-4.233-1.154v5.887z"/><path fill-rule="evenodd" clip-rule="evenodd" fill="#3279A1" d="M31.076 126.463c-2.396-.104-4.348-.856-5.794-2.647-2.053-2.542-1.741-5.994.711-8.192 2.645-2.37 7.018-2.472 9.733-.171 1.838 1.559 2.709 3.533 2.111 5.953-.675 2.73-2.601 4.192-5.218 4.856-.546.137-1.122.149-1.543.201zm4.544-6.249l-.224-.147c-.149-.709-.236-1.439-.458-2.125-.642-1.971-1.986-2.945-3.963-2.949-1.97-.004-3.295.975-3.939 2.967-.572 1.771-.498 3.526.383 5.18 1.315 2.468 4.829 2.931 6.549.736.802-1.023 1.116-2.43 1.652-3.662z"/><path fill-rule="evenodd" clip-rule="evenodd" fill="#505050" d="M122.748 114.317l.893-.782v4.376l-.259.195c-.209-.295-.498-.562-.615-.891-.591-1.655-1.865-2.553-3.319-2.117-.499.149-1.099.649-1.232 1.11-.109.376.285 1.12.671 1.374 1.008.664 2.131 1.156 3.214 1.703 2.356 1.192 3.198 2.845 2.401 4.736-.809 1.921-3.263 2.915-5.462 2.173-.606-.206-1.167-.544-1.728-.811l-.857 1.126-.379-.116c0-1.477-.009-2.954.015-4.431.002-.143.215-.282.33-.423.18.218.448.41.527.66.523 1.656 1.53 2.756 3.325 2.94 1.023.105 2.023-.021 2.378-1.187.324-1.067-.42-1.669-1.219-2.124-.879-.5-1.808-.909-2.708-1.37-.395-.203-.798-.404-1.153-.665-1.257-.927-1.753-2.263-1.381-3.618.332-1.211 1.523-2.237 2.997-2.28 1.091-.031 2.195.25 3.561.422zm-16.269 11.027c-.166.33-.258.607-.429.821-.103.128-.356.25-.49.208-.127-.04-.262-.294-.265-.456-.021-1.299-.021-2.599.001-3.896.002-.159.178-.314.274-.471.184.117.446.193.537.362.169.314.208.696.356 1.024.668 1.482 2.021 2.409 3.573 2.184.649-.093 1.45-.586 1.772-1.138.434-.741-.086-1.504-.814-1.925-.979-.566-1.993-1.075-3.009-1.571-2.297-1.121-3.266-2.972-2.443-4.719.818-1.737 3.33-2.46 5.429-1.556.256.11.499.25.7.354l1.078-.886c.113.317.185.426.186.535.008 1.216.005 2.431.005 3.646l-.317.212c-.211-.27-.504-.509-.619-.814-.573-1.532-1.48-2.381-2.81-2.219-.624.075-1.419.504-1.726 1.018-.45.755.2 1.361.885 1.729.963.519 1.949.992 2.926 1.483 2.418 1.213 3.269 2.898 2.434 4.824-.813 1.876-3.346 2.847-5.517 2.077-.564-.199-1.087-.52-1.717-.826z"/><path fill-rule="evenodd" clip-rule="evenodd" fill="#494949" d="M65.261 1.395C38.48.917 16.103 22.648 16.096 49c-.008 27.11 21.338 48.739 48.077 48.699 26.49-.039 47.932-21.587 47.932-48.167C112.104 23.384 90.76 1.85 65.261 1.395zm-1.148 93.887c-25.326.006-45.694-20.529-45.693-46.067.001-24.88 20.685-45.48 45.674-45.489 25.432-.008 45.695 20.654 45.687 46.587-.008 24.483-20.807 44.964-45.668 44.969zm24.395-59.347c-.994-1.638-2.216-3.227-2.778-5.013-.64-2.032-1.171-4.345-.832-6.382.576-3.454 3.225-5.169 6.812-5.497C72.086.83 41.248 7.349 29.885 27.138c4.374-.203 8.55-.468 12.729-.524.791-.011 2.1.657 2.286 1.277.416 1.385-.748 1.868-1.986 1.963-1.301.102-2.604.199-4.115.314l14.935 44.494c.359-.587.507-.752.572-.945 2.762-8.255 5.54-16.505 8.232-24.784.246-.755.124-1.755-.146-2.531-1.424-4.111-3.13-8.133-4.379-12.294-.855-2.849-1.988-4.692-5.355-4.362-.574.056-1.273-1.178-1.916-1.816.777-.463 1.548-1.316 2.332-1.328a659.24 659.24 0 0120.572.006c.786.013 1.557.889 2.335 1.364-.681.622-1.267 1.554-2.063 1.794-1.276.385-2.691.312-4.218.448l14.953 44.484c2.266-7.524 4.374-14.434 6.422-21.36 1.83-6.182.74-11.957-2.567-17.403zM52.719 88.149c-.092.267-.097.563-.168 1.007 8.458 2.344 16.75 2.175 25.24-.685l-12.968-35.52c-4.151 12.064-8.131 23.63-12.104 35.198zm-6.535-1.606L26.646 32.947c-8.814 17.217-2.109 43.486 19.538 53.596zm54.452-55.403c-.27 2.994-.082 6.327-.941 9.362-2.023 7.152-4.496 14.181-6.877 21.229-2.588 7.66-5.28 15.286-7.927 22.927 12.437-7.372 19.271-18.253 20.359-32.555.62-8.14-2.188-19.412-4.614-20.963z"/>
    </symbol>

    <!-- Elementor -->
    <symbol id="elementor" viewBox="0 0 400 400" fill="none"><g clip-path="url(#clip0)"><path d="M200 0C89.5321 0 0 89.5321 0 200C0 310.431 89.5321 400 200 400C310.468 400 400 310.468 400 200C399.964 89.5321 310.431 0 200 0ZM150.009 283.306H116.694V116.658H150.009V283.306ZM283.306 283.306H183.324V249.991H283.306V283.306ZM283.306 216.639H183.324V183.324H283.306V216.639ZM283.306 149.973H183.324V116.658H283.306V149.973Z" fill="#92003B"></path></g><defs><clipPath id="clip0"><rect width="400" height="400" fill="white"></rect></clipPath></defs>
    </symbol>

    <!-- Woocommerce icon -->
    <symbol id="woocommerce" viewBox="-38.40015 -38.0965 332.8013 228.579"><path fill="#9B5C8F" d="M23.758 0h208.38C245.325 0 256 10.675 256 23.863v79.542c0 13.187-10.675 23.863-23.863 23.863H157.41l10.257 25.118-45.11-25.118H23.865C10.677 127.268 0 116.593 0 103.405V23.863C-.104 10.78 10.57 0 23.759 0z"/><path fill="#fff" d="M14.577 21.75c1.457-1.977 3.642-3.018 6.556-3.226 5.307-.416 8.325 2.081 9.054 7.493 3.226 21.75 6.764 40.169 10.51 55.259l22.79-43.395c2.082-3.955 4.683-6.036 7.805-6.244 4.58-.312 7.39 2.601 8.534 8.741 2.601 13.841 5.931 25.6 9.886 35.59 2.706-26.433 7.285-45.476 13.737-57.236 1.561-2.913 3.85-4.37 6.868-4.579 2.394-.208 4.58.52 6.556 2.082 1.978 1.56 3.018 3.538 3.226 5.931.104 1.874-.208 3.434-1.04 4.995-4.059 7.493-7.389 20.085-10.094 37.567-2.602 16.964-3.539 30.18-2.914 39.65.208 2.601-.208 4.89-1.249 6.868-1.249 2.29-3.122 3.538-5.515 3.746-2.706.208-5.516-1.04-8.221-3.85-9.678-9.886-17.38-24.663-22.998-44.332-6.765 13.32-11.76 23.31-14.985 29.97-6.14 11.76-11.343 17.796-15.714 18.108-2.81.208-5.204-2.186-7.285-7.18-5.307-13.634-11.031-39.962-17.171-78.986-.416-2.705.208-5.099 1.665-6.972zm223.64 16.338c-3.747-6.556-9.262-10.511-16.65-12.072-1.977-.416-3.85-.624-5.62-.624-9.99 0-18.107 5.203-24.455 15.61-5.411 8.845-8.117 18.628-8.117 29.346 0 8.013 1.665 14.88 4.995 20.605 3.747 6.556 9.262 10.51 16.65 12.072 1.977.416 3.85.624 5.62.624 10.094 0 18.21-5.203 24.455-15.61 5.411-8.95 8.117-18.732 8.117-29.45.104-8.117-1.665-14.881-4.995-20.501zm-13.112 28.826c-1.457 6.868-4.059 11.967-7.91 15.402-3.017 2.706-5.827 3.85-8.428 3.33-2.498-.52-4.58-2.706-6.14-6.764-1.249-3.226-1.873-6.452-1.873-9.47 0-2.602.208-5.203.728-7.597.937-4.266 2.706-8.429 5.515-12.384 3.435-5.099 7.077-7.18 10.823-6.452 2.498.52 4.58 2.706 6.14 6.765 1.249 3.226 1.873 6.452 1.873 9.47 0 2.705-.208 5.307-.728 7.7zm-52.033-28.826c-3.747-6.556-9.366-10.511-16.65-12.072-1.977-.416-3.85-.624-5.62-.624-9.99 0-18.107 5.203-24.455 15.61-5.411 8.845-8.117 18.628-8.117 29.346 0 8.013 1.665 14.88 4.995 20.605 3.747 6.556 9.262 10.51 16.65 12.072 1.977.416 3.85.624 5.62.624 10.094 0 18.21-5.203 24.455-15.61 5.411-8.95 8.117-18.732 8.117-29.45 0-8.117-1.665-14.881-4.995-20.501zm-13.216 28.826c-1.457 6.868-4.059 11.967-7.91 15.402-3.017 2.706-5.827 3.85-8.428 3.33-2.498-.52-4.58-2.706-6.14-6.764-1.249-3.226-1.873-6.452-1.873-9.47 0-2.602.208-5.203.728-7.597.937-4.266 2.706-8.429 5.515-12.384 3.435-5.099 7.077-7.18 10.823-6.452 2.498.52 4.58 2.706 6.14 6.765 1.249 3.226 1.873 6.452 1.873 9.47.104 2.705-.208 5.307-.728 7.7z"/>
    </symbol>

    <!-- Search Console icon -->
    <symbol id="search-console" viewBox="0 0 296 264"><path d="M83 22l22-22v42H83zM213 22L191 0v42h22z" fill="#7b7b7b" fill-rule="evenodd"/><path d="M105 0h86v21h-86z" fill="#5a5a5a"/><g fill-rule="evenodd"><path d="M272 264H24a24 24 0 0 1-24-24V83.238L41.238 42h213.524L296 83.238V240a24 24 0 0 1-24 24z" fill="#e6e7e8"/><path d="M0 127V83.238L41.238 42h213.524L296 83.238V127z" fill="#d0d1d2"/><path d="M34 264V94a10 10 0 0 1 10-10h208a10 10 0 0 1 10 10v170z" fill="#458cf5"/></g><path d="M34 127h228v137H34z" fill="#fff"/><path d="M194 264v-41l-20-20-13-36 9-23 51 51 9-38 32 32v75z" fill="#d2d3d4" fill-rule="evenodd"/><path d="M49 143h76v85H49zM49 247h98v17H49z" fill="#d2d3d4"/><path d="M213 232.1V264h-42v-31.447a49.507 49.507 0 0 1-1-89.651V190l21 13 22-13v-47.1a49.518 49.518 0 0 1 0 89.2z" fill="#505050" fill-rule="evenodd"/><path d="M57.5 95a8.5 8.5 0 1 1-8.5 8.5 8.5 8.5 0 0 1 8.5-8.5zm25 0a8.5 8.5 0 1 1-8.5 8.5 8.5 8.5 0 0 1 8.5-8.5z" fill="#e6e7e8" fill-rule="evenodd"/>
    </symbol>

    <!-- Google Analytics icon -->
    <symbol id="google-analytics" viewBox="0 0 301112 333331" shape-rendering="geometricPrecision" text-rendering="geometricPrecision" image-rendering="optimizeQuality" fill-rule="evenodd" clip-rule="evenodd"><path d="M301110 291619c124 22886-18333 41521-41206 41644-1700 14-3415-82-5101-288-21227-3140-36776-21611-36256-43057V43342c-507-21474 15084-39944 36324-43057 22721-2660 43304 13602 45964 36324 192 1673 288 3346 274 5032v249977z" fill="#f9ab00"/><path d="M41288 250756c22804 0 41288 18484 41288 41288s-18484 41288-41288 41288S0 314848 0 292044s18484-41288 41288-41288zm108630-125126c-22913 1261-40685 20472-40150 43413v110892c0 30099 13246 48364 32649 52258 22393 4539 44209-9928 48748-32320 562-2743 836-5526 822-8323V167124c41-22886-18470-41467-41356-41507-233 0-480 0-713 14z" fill="#e37400"/>
    </symbol>

    <!-- Domains icon -->
    <symbol id="domains" viewBox="-5.727555 -8.5 49.63881 51"><path d="M32.9368 1.5539C28.9685-.9255 23.7444-.3348 19.085 2.5929 14.4404-.3348 9.213-.9255 5.2496 1.5539c-6.2696 3.918-7.0318 14.0086-1.701 22.539 3.9295 6.2891 10.0745 9.9741 15.5446 9.9062 5.4701.068 11.615-3.6171 15.5445-9.9061 5.3245-8.5305 4.5687-18.621-1.701-22.5391zM6.431 22.2917a20.4336 20.4336 0 01-2.46-5.632 16.1045 16.1045 0 01-.534-5.3098c.238-3.1526 1.5213-5.6077 3.6122-6.9137 2.091-1.306 4.8552-1.3853 7.799-.2169.4418.1764.8788.3804 1.3125.6053a24.0895 24.0895 0 00-4.2272 5.0817c-3.2368 5.1788-4.224 10.9418-3.0943 15.5364a20.911 20.911 0 01-2.4082-3.151zm27.786-5.6335a20.4822 20.4822 0 01-2.46 5.632 21.1004 21.1004 0 01-2.4082 3.1574c1.01-4.1188.3237-9.1649-2.1524-13.897a.6247.6247 0 00-.895-.2428l-7.7196 4.8228a.6312.6312 0 00-.2007.8707l1.1329 1.811a.6295.6295 0 00.869.2006l5.004-3.1267c.1619.4855.3237.971.4451 1.4566.472 1.7257.653 3.518.5357 5.3034-.238 3.151-1.5213 5.606-3.6122 6.9137a7.0593 7.0593 0 01-3.5783 1.0357h-.1601a7.0513 7.0513 0 01-3.5783-1.0357c-2.0926-1.3077-3.376-3.7627-3.6138-6.9137a16.1433 16.1433 0 01.534-5.31 21.0146 21.0146 0 016.4444-10.3138A16.1368 16.1368 0 0123.335 4.216c2.9357-1.1685 5.7047-1.0908 7.7973.2169 2.0926 1.3076 3.3743 3.761 3.6122 6.9137a16.145 16.145 0 01-.5276 5.3115z" fill="#1BDBDB"/>
    </symbol>

    <!-- Grafana icon -->
    <symbol id="grafana" viewBox="0 0 24 24">
      <svg xmlns="http://www.w3.org/2000/svg" viewBox="0 0 128 128"><linearGradient id="grafana-original-a" gradientUnits="userSpaceOnUse" x1="45.842" y1="89.57" x2="45.842" y2="8.802" gradientTransform="translate(-.23 28.462) scale(1.4011)"><stop offset="0" stop-color="#fcee1f"/><stop offset="1" stop-color="#f15b2a"/></linearGradient><path fill="url(#grafana-original-a)" d="M120.8 56.9c-.2-2.1-.6-4.5-1.2-7.2s-1.8-5.5-3.2-8.6c-1.5-3-3.4-6.2-5.9-9.1-1-1.2-2.1-2.3-3.2-3.5 1.8-6.9-2.1-13-2.1-13-6.7-.4-10.9 2.1-12.4 3.2-.2-.1-.6-.2-.8-.3-1.1-.4-2.3-.9-3.5-1.3-1.2-.3-2.4-.8-3.6-1-1.2-.3-2.5-.6-3.9-.8-.2 0-.4-.1-.7-.1C77.5 6 69.1 2 69.1 2c-9.6 6.2-11.4 14.4-11.4 14.4s0 .2-.1.4c-.6.1-1 .3-1.5.4-.7.2-1.4.4-2.1.8l-2.1.9c-1.4.7-2.8 1.3-4.2 2.1-1.3.8-2.6 1.5-3.9 2.4-.2-.1-.3-.2-.3-.2-12.9-5-24.3 1-24.3 1-1 13.8 5.2 22.3 6.4 23.9-.3.9-.6 1.7-.9 2.5-1 3.1-1.7 6.3-2.1 9.6-.1.4-.1 1-.2 1.4C10.5 67.5 7 79.6 7 79.6 16.9 91 28.5 91.7 28.5 91.7c1.4 2.6 3.2 5.2 5.1 7.5.8 1 1.7 1.9 2.5 2.9-3.6 10.3.6 19 .6 19 11.1.4 18.4-4.8 19.9-6.1 1.1.3 2.2.7 3.3 1 3.4.9 6.9 1.4 10.3 1.5h4.5c5.2 7.5 14.4 8.5 14.4 8.5 6.5-6.9 6.9-13.6 6.9-15.2v-.6c1.3-1 2.6-2 4-3.1 2.6-2.3 4.8-5.1 6.8-7.9.2-.2.3-.6.6-.8 7.4.4 12.5-4.6 12.5-4.6-1.2-7.7-5.6-11.4-6.5-12.1l-.1-.1-.1-.1-.1-.1c0-.4.1-.9.1-1.4.1-.9.1-1.7.1-2.5v-3.3c0-.2 0-.4-.1-.7l-.1-.7-.1-.7c-.1-.9-.3-1.7-.4-2.5-.8-3.3-2.1-6.5-3.7-9.2-1.8-2.9-3.9-5.3-6.3-7.5-2.4-2.1-5.1-3.9-7.9-5.1-2.9-1.3-5.7-2.1-8.7-2.4-1.4-.2-3-.2-4.4-.2h-2.3c-.8.1-1.5.2-2.2.3-3 .6-5.7 1.7-8.1 3.1-2.4 1.4-4.5 3.3-6.3 5.4-1.8 2.1-3.1 4.3-4 6.7-.9 2.3-1.4 4.8-1.5 7.2v2.6c0 .3 0 .6.1.9.1 1.2.3 2.3.7 3.4.7 2.2 1.7 4.2 3 5.9s2.8 3.1 4.4 4.2c1.7 1.1 3.3 1.9 5.1 2.4s3.4.8 5 .7h2.3c.2 0 .4-.1.6-.1.2 0 .3-.1.6-.1.3-.1.8-.2 1.1-.3.7-.2 1.3-.6 2-.8.7-.3 1.2-.7 1.7-1 .1-.1.3-.2.4-.3.6-.4.7-1.2.2-1.8-.4-.4-1.1-.6-1.7-.3-.1.1-.2.1-.4.2-.4.2-1 .4-1.4.6-.6.1-1.1.3-1.7.4-.3 0-.6.1-.9.1h-1.8s-.1 0 0 0h-.7c-.1 0-.3 0-.4-.1-1.2-.2-2.5-.6-3.7-1.1-1.2-.6-2.4-1.3-3.4-2.3-1.1-1-2-2.1-2.8-3.4-.8-1.3-1.2-2.8-1.4-4.2-.1-.8-.2-1.5-.1-2.3v-.7c0 .1 0 0 0 0V70c0-.4.1-.8.2-1.2.6-3.3 2.2-6.5 4.7-8.9.7-.7 1.3-1.2 2.1-1.7.8-.6 1.5-1 2.3-1.3.8-.3 1.7-.7 2.5-.9.9-.2 1.8-.4 2.6-.4.4 0 .9-.1 1.3-.1h.8c.1 0 0 0 0 0h.4c1 .1 2 .2 2.9.4 1.9.4 3.7 1.1 5.5 2.1 3.5 2 6.5 5 8.3 8.6.9 1.8 1.5 3.7 1.9 5.8.1.6.1 1 .2 1.5v2.7c0 .6-.1 1.1-.1 1.7-.1.6-.1 1.1-.2 1.7s-.2 1.1-.3 1.7c-.2 1.1-.7 2.1-1 3.2-.8 2.1-1.9 4.1-3.2 5.8-2.6 3.6-6.3 6.6-10.3 8.5-2.1.9-4.2 1.7-6.4 2-1.1.2-2.2.3-3.3.3h-1.6c.1 0 0 0 0 0h-.1c-.6 0-1.2 0-1.8-.1-2.4-.2-4.7-.7-7-1.3-2.3-.7-4.5-1.5-6.6-2.6-4.2-2.2-7.9-5.4-10.9-9-1.4-1.9-2.8-3.9-3.9-5.9s-1.9-4.3-2.5-6.5c-.7-2.2-1-4.5-1.1-6.8v-3.5c0-1.1.1-2.3.3-3.5.1-1.2.3-2.3.6-3.5.2-1.2.6-2.3.9-3.5.7-2.3 1.4-4.5 2.4-6.6 2-4.2 4.5-7.9 7.5-10.9.8-.8 1.5-1.4 2.4-2.1.3-.3 1.1-1 2-1.5s1.8-1.1 2.8-1.5c.4-.2.9-.4 1.4-.7.2-.1.4-.2.8-.3.2-.1.4-.2.8-.3 1-.4 2-.8 3-1.1.2-.1.6-.1.8-.2.2-.1.6-.1.8-.2.6-.1 1-.2 1.5-.4.2-.1.6-.1.8-.2.2 0 .6-.1.8-.1.2 0 .6-.1.8-.1l.4-.1.4-.1c.2 0 .6-.1.8-.1.3 0 .6-.1.9-.1.2 0 .7-.1.9-.1.2 0 .3 0 .6-.1h.7c.3 0 .6 0 .9-.1h.4s.1 0 0 0h4.1c2 .1 4 .3 5.8.7 3.7.7 7.4 1.9 10.6 3.5 3.2 1.5 6.2 3.5 8.6 5.6.1.1.3.2.4.4.1.1.3.2.4.4.3.2.6.6.9.8.3.2.6.6.9.8.2.3.6.6.8.9 1.1 1.1 2.1 2.3 3 3.4 1.8 2.3 3.2 4.6 4.3 6.8.1.1.1.2.2.4.1.1.1.2.2.4s.2.6.4.8c.1.2.2.6.3.8.1.2.2.6.3.8.4 1 .8 2 1.1 3 .6 1.5.9 2.9 1.2 4 .1.4.6.8 1 .8.6 0 .9-.4.9-1-.3-1.7-.3-3.1-.4-4.8z"/></svg>
    </symbol>

    <!-- DigitalOcean icon -->
    <symbol id="digitalocean" viewBox="0 0 128 128" xmlns="http://www.w3.org/2000/svg"><g fill-rule="nonzero" fill="#0080FF"><path d="M63.724 110.725V92.543c19.352 0 34.282-19.008 26.817-39.118-2.765-7.438-8.57-13.499-16.312-16.254-19.905-7.162-38.982 7.714-38.982 26.722H17c0-30.303 29.582-54.27 61.93-44.352 14.1 4.407 25.158 15.427 29.582 29.476 9.953 32.231-14.1 61.708-44.788 61.708z"/><path d="M64 92.543H45.753V74.637H64v17.906zm-18.247 14.05H31.929v-14.05h13.824v14.05zm-13.824-14.05H20.318v-11.57h11.611v11.57z"/></g>
    </symbol>

    <!-- JIRA icon -->
    <symbol id="jira" viewBox="0 0 24 24">
      <svg xmlns="http://www.w3.org/2000/svg" viewBox="0 0 128 128"><defs><linearGradient id="jira-original-a" gradientUnits="userSpaceOnUse" x1="22.034" y1="9.773" x2="17.118" y2="14.842" gradientTransform="scale(4)"><stop offset=".176" stop-color="#0052cc"/><stop offset="1" stop-color="#2684ff"/></linearGradient><linearGradient id="jira-original-b" gradientUnits="userSpaceOnUse" x1="16.641" y1="15.564" x2="10.957" y2="21.094" gradientTransform="scale(4)"><stop offset=".176" stop-color="#0052cc"/><stop offset="1" stop-color="#2684ff"/></linearGradient></defs><path d="M108.023 16H61.805c0 11.52 9.324 20.848 20.847 20.848h8.5v8.226c0 11.52 9.328 20.848 20.848 20.848V19.977A3.98 3.98 0 00108.023 16zm0 0" fill="#2684ff"/><path d="M85.121 39.04H38.902c0 11.519 9.325 20.847 20.844 20.847h8.504v8.226c0 11.52 9.328 20.848 20.848 20.848V43.016a3.983 3.983 0 00-3.977-3.977zm0 0" fill="url(#jira-original-a)"/><path d="M62.219 62.078H16c0 11.524 9.324 20.848 20.848 20.848h8.5v8.23c0 11.52 9.328 20.844 20.847 20.844V66.059a3.984 3.984 0 00-3.976-3.98zm0 0" fill="url(#jira-original-b)"/></svg>
    </symbol>

    <!-- Ubiquiti icon -->
    <symbol id="ubiquiti" viewBox="0 0 1024 1024" xmlns="http://www.w3.org/2000/svg">
   <circle cx="512" cy="512" r="512" style="fill:#0559c9"/>
   <path d="M588.6 385q0-31.49 20.72-58.54t107.68-27V518l-9.91 31.93a212.89 212.89 0 0 1-18.92 43.69 144.75 144.75 0 0 1-26.58 33.49 136.56 136.56 0 0 1-34.46 23.29A175.8 175.8 0 0 1 585 663.93a217.46 217.46 0 0 0 3.61-38.58zM384 324.2h25.69V349H384v-24.8zm25.69 37.69h25.71v24.85h-25.67zM384 393.38h25.7v24.85H384zm-25.67 37.27H384v25.27h-25.64zM307 298.92h25.67v25.28H307zm128.4 326.43q0 32.37 11.94 56.33t26.37 39.91q14.4 16 26.35 23.74l11.94 7.75q-48.19 0-86.27-13.52t-64.44-37.7a163.16 163.16 0 0 1-40.32-57q-14-32.84-14-71V368.11h25.67V505.6h25.7v-24.83H384v55.43h25.69v-93.13h25.71zm94.6 51.89q35.6 1.32 65.34-5.33a163.23 163.23 0 0 0 53.38-22 148.87 148.87 0 0 0 40.78-39.48q17.12-24.15 27.48-57.87v21.34q0 36.37-12.39 67.64a159.64 159.64 0 0 1-36.28 55q-23.87 23.74-58.12 38.37t-77.92 17.29l-15.33-8q-1.79-1.32-29.73-23.29t-38.3-66.3a151.75 151.75 0 0 0 35.38 15.3q20.05 6 45.71 7.33zM358.36 349.47h25.24v24.85h-25.24z" style="fill:#fff"/>
    </symbol>

    <!-- Google Workspace icon -->
    <symbol id="google-workspace" viewBox="0 0 128 128"><path fill="#fff" d="M44.59 4.21a63.28 63.28 0 004.33 120.9 67.6 67.6 0 0032.36.35 57.13 57.13 0 0025.9-13.46 57.44 57.44 0 0016-26.26 74.33 74.33 0 001.61-33.58H65.27v24.69h34.47a29.72 29.72 0 01-12.66 19.52 36.16 36.16 0 01-13.93 5.5 41.29 41.29 0 01-15.1 0A37.16 37.16 0 0144 95.74a39.3 39.3 0 01-14.5-19.42 38.31 38.31 0 010-24.63 39.25 39.25 0 019.18-14.91A37.17 37.17 0 0176.13 27a34.28 34.28 0 0113.64 8q5.83-5.8 11.64-11.63c2-2.09 4.18-4.08 6.15-6.22A61.22 61.22 0 0087.2 4.59a64 64 0 00-42.61-.38z"/><path fill="#e33629" d="M44.59 4.21a64 64 0 0142.61.37 61.22 61.22 0 0120.35 12.62c-2 2.14-4.11 4.14-6.15 6.22Q95.58 29.23 89.77 35a34.28 34.28 0 00-13.64-8 37.17 37.17 0 00-37.46 9.74 39.25 39.25 0 00-9.18 14.91L8.76 35.6A63.53 63.53 0 0144.59 4.21z"/><path fill="#f8bd00" d="M3.26 51.5a62.93 62.93 0 015.5-15.9l20.73 16.09a38.31 38.31 0 000 24.63q-10.36 8-20.73 16.08a63.33 63.33 0 01-5.5-40.9z"/><path fill="#587dbd" d="M65.27 52.15h59.52a74.33 74.33 0 01-1.61 33.58 57.44 57.44 0 01-16 26.26c-6.69-5.22-13.41-10.4-20.1-15.62a29.72 29.72 0 0012.66-19.54H65.27c-.01-8.22 0-16.45 0-24.68z"/><path fill="#319f43" d="M8.75 92.4q10.37-8 20.73-16.08A39.3 39.3 0 0044 95.74a37.16 37.16 0 0014.08 6.08 41.29 41.29 0 0015.1 0 36.16 36.16 0 0013.93-5.5c6.69 5.22 13.41 10.4 20.1 15.62a57.13 57.13 0 01-25.9 13.47 67.6 67.6 0 01-32.36-.35 63 63 0 01-23-11.59A63.73 63.73 0 018.75 92.4z"/>
    </symbol>
    <!-- N8N-->
    <symbol id="n8n" viewBox="0 0 24 24">
      <path clip-rule="evenodd" d="M24 8.4c0 1.325-1.102 2.4-2.462 2.4-1.146 0-2.11-.765-2.384-1.8h-3.436c-.602 0-1.115.424-1.214 1.003l-.101.592a2.38 2.38 0 01-.8 1.405c.412.354.704.844.8 1.405l.1.592A1.222 1.222 0 0015.719 15h.975c.273-1.035 1.237-1.8 2.384-1.8 1.36 0 2.461 1.075 2.461 2.4S20.436 18 19.078 18c-1.147 0-2.11-.765-2.384-1.8h-.975c-1.204 0-2.23-.848-2.428-2.005l-.101-.592a1.222 1.222 0 00-1.214-1.003H10.97c-.308.984-1.246 1.7-2.356 1.7-1.11 0-2.048-.716-2.355-1.7H4.817c-.308.984-1.246 1.7-2.355 1.7C1.102 14.3 0 13.225 0 11.9s1.102-2.4 2.462-2.4c1.183 0 2.172.815 2.408 1.9h1.337c.236-1.085 1.225-1.9 2.408-1.9 1.184 0 2.172.815 2.408 1.9h.952c.601 0 1.115-.424 1.213-1.003l.102-.592c.198-1.157 1.225-2.005 2.428-2.005h3.436c.274-1.035 1.238-1.8 2.384-1.8C22.898 6 24 7.075 24 8.4zm-1.23 0c0 .663-.552 1.2-1.232 1.2-.68 0-1.23-.537-1.23-1.2 0-.663.55-1.2 1.23-1.2.68 0 1.231.537 1.231 1.2zM2.461 13.1c.68 0 1.23-.537 1.23-1.2 0-.663-.55-1.2-1.23-1.2-.68 0-1.231.537-1.231 1.2 0 .663.55 1.2 1.23 1.2zm6.153 0c.68 0 1.231-.537 1.231-1.2 0-.663-.55-1.2-1.23-1.2-.68 0-1.231.537-1.231 1.2 0 .663.55 1.2 1.23 1.2zm10.462 3.7c.68 0 1.23-.537 1.23-1.2 0-.663-.55-1.2-1.23-1.2-.68 0-1.23.537-1.23 1.2 0 .663.55 1.2 1.23 1.2z" fill="#EA4B71" fill-rule="evenodd"></path>
    </symbol>
  </defs>
</svg>